<svg width="196" height="196" fill="none" xmlns="http://www.w3.org/2000/svg"><path d="M0 12C0 5.373 5.373 0 12 0h172c6.627 0 12 5.373 12 12v172c0 6.627-5.373 12-12 12H12c-6.627 0-12-5.373-12-12V12Z" fill="#37474F"/><path d="M60.328 129.328a.616.616 0 0 1-.16.184.343.343 0 0 1-.2.056c-.09 0-.197-.045-.32-.136a4.793 4.793 0 0 0-.464-.296 3.388 3.388 0 0 0-.664-.304 2.812 2.812 0 0 0-.936-.136c-.347 0-.653.048-.92.144a1.968 1.968 0 0 0-.664.376 1.57 1.57 0 0 0-.4.568c-.09.213-.136.445-.136.696 0 .32.077.587.232.8.16.208.368.387.624.536.261.149.555.28.88.392.33.107.667.219 1.008.336.347.117.683.251 1.008.4.33.144.624.328.88.552.261.224.47.499.624.824.16.325.24.725.24 1.2 0 .501-.085.973-.256 1.416-.17.437-.421.819-.752 1.144a3.459 3.459 0 0 1-1.208.768c-.475.187-1.016.28-1.624.28-.747 0-1.424-.133-2.032-.4a4.813 4.813 0 0 1-1.56-1.096l.448-.736a.547.547 0 0 1 .152-.144.365.365 0 0 1 .208-.064.42.42 0 0 1 .232.088c.09.053.192.123.304.208.112.085.24.179.384.28.144.101.307.195.488.28.187.085.397.157.632.216.235.053.499.08.792.08.368 0 .696-.051.984-.152a2.08 2.08 0 0 0 .728-.424c.203-.187.357-.408.464-.664.107-.256.16-.541.16-.856 0-.347-.08-.629-.24-.848a1.89 1.89 0 0 0-.616-.56 4.161 4.161 0 0 0-.88-.376c-.33-.107-.667-.213-1.008-.32-.341-.112-.677-.24-1.008-.384a3.264 3.264 0 0 1-.88-.56 2.631 2.631 0 0 1-.624-.856c-.155-.347-.232-.773-.232-1.28 0-.405.077-.797.232-1.176.16-.379.39-.715.688-1.008a3.422 3.422 0 0 1 1.112-.704c.443-.176.95-.264 1.52-.264.64 0 1.221.101 1.744.304.528.203.992.496 1.392.88l-.376.736Zm8.995 1.568V139h-.848c-.202 0-.33-.099-.384-.296l-.112-.872a4.536 4.536 0 0 1-1.184.944c-.437.235-.938.352-1.504.352-.442 0-.834-.072-1.176-.216a2.364 2.364 0 0 1-.848-.624 2.678 2.678 0 0 1-.52-.968 4.418 4.418 0 0 1-.168-1.256v-5.168h1.424v5.168c0 .613.139 1.088.416 1.424.283.336.712.504 1.288.504.422 0 .814-.099 1.176-.296.368-.203.707-.48 1.016-.832v-5.968h1.424Zm3.69 6.152c.261.352.547.6.856.744a2.45 2.45 0 0 0 1.032.216c.763 0 1.347-.269 1.752-.808s.608-1.341.608-2.408c0-.992-.181-1.72-.544-2.184-.357-.469-.87-.704-1.536-.704-.464 0-.87.107-1.216.32a3.599 3.599 0 0 0-.952.904v3.92Zm0-4.984a4.192 4.192 0 0 1 1.152-.944c.432-.235.928-.352 1.488-.352.475 0 .901.091 1.28.272.384.181.71.445.976.792.267.341.47.757.608 1.248a5.88 5.88 0 0 1 .216 1.656c0 .656-.08 1.253-.24 1.792-.16.539-.392 1-.696 1.384a3.154 3.154 0 0 1-1.096.888 3.313 3.313 0 0 1-1.456.312c-.533 0-.984-.099-1.352-.296a3.014 3.014 0 0 1-.952-.856l-.072.736c-.043.203-.165.304-.368.304h-.92v-11.784h1.432v4.848Zm9.025-1.168V139h-1.424v-8.104h1.424Zm.304-2.544c0 .139-.03.269-.088.392a1.092 1.092 0 0 1-.224.32.993.993 0 0 1-.328.216.978.978 0 0 1-.392.08.978.978 0 0 1-.704-.296 1.17 1.17 0 0 1-.216-.32.971.971 0 0 1-.08-.392c0-.139.027-.269.08-.392.054-.128.126-.237.216-.328a.982.982 0 0 1 .312-.224.978.978 0 0 1 .392-.08c.139 0 .27.027.392.08a.94.94 0 0 1 .328.224c.096.091.17.2.224.328a.898.898 0 0 1 .088.392Zm3.388 4.168c.256-.555.57-.987.944-1.296.373-.315.83-.472 1.368-.472.17 0 .333.019.488.056.16.037.301.096.424.176l-.104 1.064c-.032.133-.112.2-.24.2-.075 0-.184-.016-.328-.048a2.258 2.258 0 0 0-.488-.048c-.256 0-.485.037-.688.112a1.632 1.632 0 0 0-.536.336 2.368 2.368 0 0 0-.424.544 4.737 4.737 0 0 0-.336.736V139h-1.432v-8.104h.816c.155 0 .261.029.32.088s.099.16.12.304l.096 1.232Zm9.73-1.624V139h-1.424v-8.104h1.424Zm.304-2.544c0 .139-.03.269-.088.392a1.09 1.09 0 0 1-.224.32.992.992 0 0 1-.328.216.978.978 0 0 1-.392.08.978.978 0 0 1-.704-.296 1.175 1.175 0 0 1-.216-.32.973.973 0 0 1-.08-.392c0-.139.027-.269.08-.392a1.01 1.01 0 0 1 .216-.328.984.984 0 0 1 .312-.224.978.978 0 0 1 .392-.08c.139 0 .27.027.392.08a.94.94 0 0 1 .328.224c.096.091.17.2.224.328a.897.897 0 0 1 .088.392ZM97.8 139v-8.104h.856c.203 0 .328.099.376.296l.104.832a4.128 4.128 0 0 1 1.008-.904c.373-.235.805-.352 1.296-.352.544 0 .984.152 1.32.456.341.304.587.715.736 1.232.117-.293.267-.547.448-.76a2.62 2.62 0 0 1 1.352-.832c.261-.064.525-.096.792-.096.427 0 .805.069 1.136.208.336.133.619.331.848.592.235.261.413.584.536.968.123.379.184.813.184 1.304V139h-1.432v-5.16c0-.635-.139-1.115-.416-1.44-.277-.331-.677-.496-1.2-.496-.235 0-.459.043-.672.128-.208.08-.392.2-.552.36-.16.16-.288.363-.384.608-.091.24-.136.52-.136.84V139h-1.432v-5.16c0-.651-.131-1.136-.392-1.456-.261-.32-.643-.48-1.144-.48a1.77 1.77 0 0 0-.976.288 3.181 3.181 0 0 0-.824.768V139H97.8Zm17.548-3.648c-.656.021-1.216.075-1.68.16-.459.08-.835.187-1.128.32-.288.133-.499.291-.632.472a1.029 1.029 0 0 0-.192.608c0 .213.035.397.104.552.069.155.163.283.28.384.123.096.264.168.424.216.165.043.341.064.528.064.251 0 .48-.024.688-.072.208-.053.403-.128.584-.224.187-.096.363-.211.528-.344.171-.133.336-.285.496-.456v-1.68Zm-4.6-3.312a4.626 4.626 0 0 1 1.448-.968 4.477 4.477 0 0 1 1.72-.32c.453 0 .856.075 1.208.224.352.149.648.357.888.624s.421.589.544.968c.123.379.184.795.184 1.248V139h-.632a.65.65 0 0 1-.32-.064c-.075-.048-.133-.139-.176-.272l-.16-.768a8.695 8.695 0 0 1-.624.528 3.975 3.975 0 0 1-.64.384 3.446 3.446 0 0 1-.72.232 3.678 3.678 0 0 1-.84.088c-.315 0-.611-.043-.888-.128a2.155 2.155 0 0 1-.728-.4 1.934 1.934 0 0 1-.488-.664 2.416 2.416 0 0 1-.176-.96c0-.32.088-.627.264-.92.176-.299.461-.563.856-.792.395-.229.909-.416 1.544-.56.635-.149 1.413-.235 2.336-.256v-.632c0-.629-.136-1.104-.408-1.424-.272-.325-.669-.488-1.192-.488-.352 0-.648.045-.888.136-.235.085-.44.184-.616.296-.171.107-.32.205-.448.296a.644.644 0 0 1-.368.128.424.424 0 0 1-.248-.072.75.75 0 0 1-.176-.192l-.256-.456Zm10.985 3c.288 0 .542-.04.76-.12.219-.08.403-.192.552-.336.15-.144.262-.315.336-.512a1.9 1.9 0 0 0 .112-.664c0-.496-.152-.891-.456-1.184-.298-.293-.733-.44-1.304-.44-.576 0-1.016.147-1.32.44-.298.293-.448.688-.448 1.184 0 .24.038.461.112.664.08.197.195.368.344.512.15.144.334.256.552.336.219.08.472.12.76.12Zm2.568 4.4a.685.685 0 0 0-.168-.48 1.11 1.11 0 0 0-.456-.288 2.736 2.736 0 0 0-.656-.144c-.25-.032-.517-.056-.8-.072l-.848-.048a10.165 10.165 0 0 1-.832-.08 2.263 2.263 0 0 0-.736.528 1.068 1.068 0 0 0-.144 1.24c.096.16.24.296.432.408.192.117.432.208.72.272.294.069.638.104 1.032.104.384 0 .728-.035 1.032-.104.304-.069.56-.168.768-.296.214-.128.376-.28.488-.456.112-.176.168-.371.168-.584Zm1.448-8.224v.528c0 .176-.112.288-.336.336l-.92.12c.182.352.272.741.272 1.168a2.476 2.476 0 0 1-.856 1.904 2.786 2.786 0 0 1-.96.528 3.86 3.86 0 0 1-1.216.184 4.09 4.09 0 0 1-1.072-.136c-.17.107-.301.221-.392.344a.587.587 0 0 0-.136.36c0 .192.078.339.232.44.16.096.368.165.624.208.256.043.547.069.872.08.331.011.667.029 1.008.056.347.021.683.061 1.008.12.331.059.624.155.88.288.256.133.462.317.616.552.16.235.24.539.24.912 0 .347-.088.683-.264 1.008-.17.325-.418.613-.744.864a3.718 3.718 0 0 1-1.2.608c-.469.155-1 .232-1.592.232a6.112 6.112 0 0 1-1.552-.176 3.657 3.657 0 0 1-1.104-.472 2.092 2.092 0 0 1-.664-.688 1.623 1.623 0 0 1-.216-.808c0-.4.126-.739.376-1.016.251-.277.595-.499 1.032-.664a1.535 1.535 0 0 1-.576-.424c-.138-.181-.208-.424-.208-.728 0-.117.022-.237.064-.36.043-.128.107-.253.192-.376a2.08 2.08 0 0 1 .776-.656c-.4-.224-.712-.52-.936-.888-.224-.373-.336-.805-.336-1.296 0-.395.075-.752.224-1.072.155-.325.368-.6.64-.824a2.89 2.89 0 0 1 .968-.528 3.996 3.996 0 0 1 1.24-.184c.352 0 .68.04.984.12.304.075.582.187.832.336h2.2Zm6.772 2.848a2.7 2.7 0 0 0-.144-.904 1.926 1.926 0 0 0-.408-.712 1.722 1.722 0 0 0-.648-.464 2.156 2.156 0 0 0-.872-.168c-.683 0-1.224.2-1.624.6-.395.395-.64.944-.736 1.648h4.432Zm1.152 3.8c-.176.213-.387.4-.632.56-.246.155-.51.283-.792.384a4.725 4.725 0 0 1-.864.224c-.299.053-.595.08-.888.08-.56 0-1.078-.093-1.552-.28a3.498 3.498 0 0 1-1.224-.832 3.878 3.878 0 0 1-.8-1.36c-.192-.539-.288-1.157-.288-1.856 0-.565.085-1.093.256-1.584.176-.491.426-.915.752-1.272a3.366 3.366 0 0 1 1.192-.848 3.867 3.867 0 0 1 1.584-.312c.485 0 .933.083 1.344.248.416.16.773.395 1.072.704.304.304.541.683.712 1.136.17.448.256.96.256 1.536 0 .224-.024.373-.072.448-.048.075-.139.112-.272.112h-5.416c.016.512.085.957.208 1.336.128.379.304.696.528.952.224.251.49.44.8.568.309.123.656.184 1.04.184.357 0 .664-.04.92-.12a4.602 4.602 0 0 0 1.136-.536c.128-.085.237-.128.328-.128.117 0 .208.045.272.136l.4.52Zm3.221-5.792c.176-.197.363-.376.56-.536.197-.16.405-.296.624-.408a3.26 3.26 0 0 1 1.512-.36c.443 0 .832.075 1.168.224.341.144.624.352.848.624.229.267.403.589.52.968.117.379.176.797.176 1.256V139h-1.432v-5.16c0-.613-.141-1.088-.424-1.424-.277-.341-.701-.512-1.272-.512-.421 0-.816.101-1.184.304a3.903 3.903 0 0 0-1.008.824V139h-1.432v-8.104h.856c.203 0 .328.099.376.296l.112.88ZM98 85c-6.617 0-12 5.383-12 12s5.383 12 12 12 12-5.383 12-12-5.383-12-12-12Zm4.615 12.923h-3.692v3.692a.923.923 0 1 1-1.846 0v-3.692h-3.692a.923.923 0 0 1 0-1.846h3.692v-3.692a.923.923 0 0 1 1.846 0v3.692h3.692a.923.923 0 1 1 0 1.846Z" fill="#fff"/></svg>