<svg width="16" height="16" viewBox="0 0 16 16" fill="none" xmlns="http://www.w3.org/2000/svg">
<g clip-path="url(#clip0_2032_13679)">
<path d="M10.6667 8.0013H8.66667C8.3 8.0013 8 8.3013 8 8.66797V10.668C8 11.0346 8.3 11.3346 8.66667 11.3346H10.6667C11.0333 11.3346 11.3333 11.0346 11.3333 10.668V8.66797C11.3333 8.3013 11.0333 8.0013 10.6667 8.0013ZM10.6667 1.33464V2.0013H5.33333V1.33464C5.33333 0.967969 5.03333 0.667969 4.66667 0.667969C4.3 0.667969 4 0.967969 4 1.33464V2.0013H3.33333C2.59333 2.0013 2.00667 2.6013 2.00667 3.33464L2 12.668C2 13.4013 2.59333 14.0013 3.33333 14.0013H12.6667C13.4 14.0013 14 13.4013 14 12.668V3.33464C14 2.6013 13.4 2.0013 12.6667 2.0013H12V1.33464C12 0.967969 11.7 0.667969 11.3333 0.667969C10.9667 0.667969 10.6667 0.967969 10.6667 1.33464ZM12 12.668H4C3.63333 12.668 3.33333 12.368 3.33333 12.0013V5.33464H12.6667V12.0013C12.6667 12.368 12.3667 12.668 12 12.668Z" fill="#EE0075"/>
</g>
<defs>
<clipPath id="clip0_2032_13679">
<rect width="16" height="16" fill="white"/>
</clipPath>
</defs>
</svg>
