<svg width="12" height="14" viewBox="0 0 12 14" fill="none" xmlns="http://www.w3.org/2000/svg">
<path d="M8.66667 8.0013H6.66667C6.3 8.0013 6 8.3013 6 8.66797V10.668C6 11.0346 6.3 11.3346 6.66667 11.3346H8.66667C9.03333 11.3346 9.33333 11.0346 9.33333 10.668V8.66797C9.33333 8.3013 9.03333 8.0013 8.66667 8.0013ZM8.66667 1.33464V2.0013H3.33333V1.33464C3.33333 0.967969 3.03333 0.667969 2.66667 0.667969C2.3 0.667969 2 0.967969 2 1.33464V2.0013H1.33333C0.593333 2.0013 0.00666666 2.6013 0.00666666 3.33464L0 12.668C0 13.4013 0.593333 14.0013 1.33333 14.0013H10.6667C11.4 14.0013 12 13.4013 12 12.668V3.33464C12 2.6013 11.4 2.0013 10.6667 2.0013H10V1.33464C10 0.967969 9.7 0.667969 9.33333 0.667969C8.96667 0.667969 8.66667 0.967969 8.66667 1.33464ZM10 12.668H2C1.63333 12.668 1.33333 12.368 1.33333 12.0013V5.33464H10.6667V12.0013C10.6667 12.368 10.3667 12.668 10 12.668Z" fill="#EE0075"/>
</svg>
