<svg width="16" height="16" viewBox="0 0 16 16" fill="none" xmlns="http://www.w3.org/2000/svg">
<path d="M12.2196 14.9997C11.6096 14.9997 10.7527 14.7791 9.46959 14.0622C7.90927 13.1872 6.7024 12.3794 5.15052 10.8316C3.65427 9.33627 2.92615 8.36815 1.90709 6.51377C0.755838 4.42002 0.952087 3.32252 1.17146 2.85346C1.43271 2.29284 1.81834 1.95752 2.31677 1.62471C2.59988 1.43922 2.89948 1.28022 3.21178 1.14971C3.24303 1.13627 3.27209 1.12346 3.29803 1.1119C3.45271 1.04221 3.68709 0.936898 3.98396 1.0494C4.18209 1.12377 4.35896 1.27596 4.63584 1.5494C5.20365 2.1094 5.97959 3.35658 6.26584 3.96908C6.45802 4.3819 6.58521 4.6544 6.58553 4.96002C6.58553 5.31783 6.40553 5.59377 6.18709 5.89158C6.14615 5.94752 6.10552 6.00096 6.06615 6.05283C5.82834 6.36533 5.77615 6.45565 5.81052 6.6169C5.88021 6.94096 6.3999 7.90565 7.25396 8.75784C8.10803 9.61002 9.0449 10.0969 9.37021 10.1663C9.53834 10.2022 9.63052 10.1478 9.95302 9.90158C9.99927 9.86627 10.0468 9.82971 10.0965 9.79315C10.4296 9.54534 10.6927 9.37002 11.0421 9.37002H11.044C11.348 9.37002 11.6083 9.5019 12.0396 9.7194C12.6021 10.0031 13.8868 10.7691 14.4502 11.3375C14.7243 11.6138 14.8771 11.79 14.9518 11.9878C15.0643 12.2856 14.9583 12.5191 14.8893 12.6753C14.8777 12.7013 14.8649 12.7297 14.8515 12.7613C14.7199 13.073 14.56 13.372 14.3736 13.6544C14.0415 14.1513 13.7049 14.536 13.143 14.7975C12.8545 14.934 12.5387 15.0031 12.2196 14.9997Z" fill="#EE0075"/>
</svg>
