<svg width="16" height="16" viewBox="0 0 16 16" fill="none" xmlns="http://www.w3.org/2000/svg">
<path d="M1 13C1 13.1326 1.05268 13.2598 1.14645 13.3536C1.24021 13.4473 1.36739 13.5 1.5 13.5H14.5C14.6326 13.5 14.7598 13.4473 14.8536 13.3536C14.9473 13.2598 15 13.1326 15 13V6.9375H1V13ZM3.0625 8.6875C3.0625 8.6212 3.08884 8.55761 3.13572 8.51072C3.18261 8.46384 3.2462 8.4375 3.3125 8.4375H6.1875C6.2538 8.4375 6.31739 8.46384 6.36428 8.51072C6.41116 8.55761 6.4375 8.6212 6.4375 8.6875V10.6875C6.4375 10.7538 6.41116 10.8174 6.36428 10.8643C6.31739 10.9112 6.2538 10.9375 6.1875 10.9375H3.3125C3.2462 10.9375 3.18261 10.9112 3.13572 10.8643C3.08884 10.8174 3.0625 10.7538 3.0625 10.6875V8.6875ZM14.5 2.5H1.5C1.36739 2.5 1.24021 2.55268 1.14645 2.64645C1.05268 2.74021 1 2.86739 1 3V5.0625H15V3C15 2.86739 14.9473 2.74021 14.8536 2.64645C14.7598 2.55268 14.6326 2.5 14.5 2.5Z" fill="#EE0075"/>
</svg>
