<svg width="16" height="16" viewBox="0 0 16 16" fill="none" xmlns="http://www.w3.org/2000/svg">
<path d="M1.5 10.5L14.5 10.5C14.7761 10.5 15 10.2761 15 10L15 3C15 2.72386 14.7761 2.5 14.5 2.5L1.5 2.5C1.22386 2.5 1 2.72386 1 3L1 10C1 10.2761 1.22386 10.5 1.5 10.5Z" stroke="#EE0075" stroke-linejoin="round"/>
<path d="M2 12H14M3 13.5H13" stroke="#EE0075" stroke-linecap="round" stroke-linejoin="round"/>
<path d="M8 9C9.38071 9 10.5 7.88071 10.5 6.5C10.5 5.11929 9.38071 4 8 4C6.61929 4 5.5 5.11929 5.5 6.5C5.5 7.88071 6.61929 9 8 9Z" stroke="#EE0075" stroke-linecap="round" stroke-linejoin="round"/>
<path d="M15 5C14.337 5 13.7011 4.73661 13.2322 4.26777C12.7634 3.79893 12.5 3.16304 12.5 2.5M1 5C1.3283 5 1.65339 4.93534 1.95671 4.8097C2.26002 4.68406 2.53562 4.49991 2.76777 4.26777C2.99991 4.03562 3.18406 3.76002 3.3097 3.45671C3.43534 3.15339 3.5 2.8283 3.5 2.5M15 8C14.337 8 13.7011 8.26339 13.2322 8.73223C12.7634 9.20107 12.5 9.83696 12.5 10.5M1 8C1.3283 8 1.65339 8.06466 1.95671 8.1903C2.26002 8.31594 2.53562 8.50009 2.76777 8.73223C2.99991 8.96438 3.18406 9.23998 3.3097 9.54329C3.43534 9.84661 3.5 10.1717 3.5 10.5" stroke="#EE0075" stroke-linecap="round" stroke-linejoin="round"/>
</svg>
