<svg width="20" height="20" fill="none" xmlns="http://www.w3.org/2000/svg"><path d="M8.834 11.5 7.042 9.707a.79.79 0 0 0-.583-.23.79.79 0 0 0-.584.23.79.79 0 0 0-.229.583c0 .236.077.43.23.583L8.25 13.25a.8.8 0 0 0 .584.25.8.8 0 0 0 .583-.25l4.708-4.708a.79.79 0 0 0 .23-.583.79.79 0 0 0-.23-.584.79.79 0 0 0-.583-.229.79.79 0 0 0-.583.23l-4.125 4.124ZM10 18.332a8.115 8.115 0 0 1-3.25-.657 8.415 8.415 0 0 1-2.646-1.78 8.416 8.416 0 0 1-1.78-2.647A8.114 8.114 0 0 1 1.666 10c0-1.152.219-2.236.656-3.25a8.415 8.415 0 0 1 1.781-2.645A8.415 8.415 0 0 1 6.75 2.322 8.115 8.115 0 0 1 10 1.666c1.153 0 2.236.219 3.25.656a8.416 8.416 0 0 1 2.646 1.782 8.415 8.415 0 0 1 1.781 2.645 8.115 8.115 0 0 1 .657 3.25 8.114 8.114 0 0 1-.657 3.25 8.416 8.416 0 0 1-1.78 2.646 8.416 8.416 0 0 1-2.647 1.781 8.115 8.115 0 0 1-3.25.657Z" fill="#EE0075"/></svg>