<svg width="20" height="20" viewBox="0 0 20 20" fill="none" xmlns="http://www.w3.org/2000/svg">
<path d="M10 1.875C5.51992 1.875 1.875 5.51992 1.875 10C1.875 14.4801 5.51992 18.125 10 18.125C14.4801 18.125 18.125 14.4801 18.125 10C18.125 5.51992 14.4801 1.875 10 1.875ZM12.9418 12.0582C13.0023 12.1157 13.0506 12.1846 13.084 12.2611C13.1174 12.3375 13.1352 12.4199 13.1363 12.5033C13.1373 12.5867 13.1217 12.6695 13.0903 12.7468C13.0588 12.8241 13.0122 12.8943 12.9533 12.9533C12.8943 13.0122 12.8241 13.0588 12.7468 13.0903C12.6695 13.1217 12.5867 13.1373 12.5033 13.1363C12.4199 13.1352 12.3375 13.1174 12.2611 13.084C12.1846 13.0506 12.1157 13.0023 12.0582 12.9418L10 10.884L7.9418 12.9418C7.82363 13.0541 7.66629 13.1157 7.50331 13.1136C7.34034 13.1115 7.18462 13.0459 7.06937 12.9306C6.95412 12.8154 6.88845 12.6597 6.88637 12.4967C6.88428 12.3337 6.94594 12.1764 7.0582 12.0582L9.11602 10L7.0582 7.9418C6.94594 7.82363 6.88428 7.66629 6.88637 7.50331C6.88845 7.34034 6.95412 7.18462 7.06937 7.06937C7.18462 6.95412 7.34034 6.88845 7.50331 6.88637C7.66629 6.88428 7.82363 6.94594 7.9418 7.0582L10 9.11602L12.0582 7.0582C12.1764 6.94594 12.3337 6.88428 12.4967 6.88637C12.6597 6.88845 12.8154 6.95412 12.9306 7.06937C13.0459 7.18462 13.1115 7.34034 13.1136 7.50331C13.1157 7.66629 13.0541 7.82363 12.9418 7.9418L10.884 10L12.9418 12.0582Z" fill="#FF1D00"/>
</svg>
