<svg width="20" height="20" fill="none" xmlns="http://www.w3.org/2000/svg"><path d="M15 8.75v7.188a1.562 1.562 0 0 1-1.563 1.562H4.063A1.563 1.563 0 0 1 2.5 15.937V6.563A1.562 1.562 0 0 1 4.063 5h6.542" stroke="#000" stroke-linecap="round" stroke-linejoin="round"/><path d="M17.966 2.08a.627.627 0 0 0-.907-.022l-.483.481a.313.313 0 0 0 0 .442l.443.442a.312.312 0 0 0 .443 0l.471-.469a.635.635 0 0 0 .034-.874ZM15.6 3.516l-7.051 7.039a.351.351 0 0 0-.09.153l-.327.972a.153.153 0 0 0 .19.19l.97-.327a.351.351 0 0 0 .154-.09l7.04-7.052a.352.352 0 0 0 0-.495l-.39-.39a.352.352 0 0 0-.496 0Z" fill="#000"/></svg>