<svg width="1440" height="303" fill="none" xmlns="http://www.w3.org/2000/svg"><path fill-rule="evenodd" clip-rule="evenodd" d="m0 0 21.6 31.563c21.6 31.562 66 94.687 109.2 113.625 43.2 18.937 87.6-6.313 130.8-37.875C306 75.75 349.2 37.875 392.4 50.5c44.4 12.625 87.6 75.75 130.8 75.75 44.4 0 87.6-63.125 130.8-88.375 44.4-25.25 87.6-12.625 132 12.625 43.2 25.25 86.4 63.125 130.8 75.75 43.2 12.625 86.4 0 130.8 12.625 43.2 12.625 86.4 50.5 130.8 50.5 43.2 0 87.6-37.875 130.8-69.437 43.2-31.563 87.6-56.813 109.2-69.438l21.6-12.625V303H0V0Z" fill="url(#a)"/><defs><linearGradient id="a" x1="322.5" y1="-40.449" x2="1454.96" y2="122.025" gradientUnits="userSpaceOnUse"><stop offset=".267" stop-color="#312971"/><stop offset="1" stop-color="#9E1056"/></linearGradient></defs></svg>