<svg width="744" height="162" viewBox="0 0 744 162" fill="none" xmlns="http://www.w3.org/2000/svg">
<path fill-rule="evenodd" clip-rule="evenodd" d="M744 162L732.84 145.125C721.68 128.25 698.74 94.5 676.42 84.375C654.1 74.25 631.16 87.75 608.84 104.625C585.9 121.5 563.58 141.75 541.26 135C518.32 128.25 496 94.5 473.68 94.5C450.74 94.5 428.42 128.25 406.1 141.75C383.16 155.25 360.84 148.5 337.9 135C315.58 121.5 293.26 101.25 270.32 94.5C248 87.75 225.68 94.5 202.74 87.75C180.42 81 150.44 62.3919 127.5 62.3919C105.18 62.3919 89.9 81 67.58 97.875C45.26 114.75 22.32 128.25 11.16 135L0 141.75L0 0H11.16C22.32 0 45.26 0 67.58 0C89.9 0 112.84 0 135.16 0C158.1 0 180.42 0 202.74 0C225.68 0 248 0 270.32 0C293.26 0 315.58 0 337.9 0C360.84 0 383.16 0 406.1 0C428.42 0 450.74 0 473.68 0C496 0 518.32 0 541.26 0C563.58 0 585.9 0 608.84 0C631.16 0 654.1 0 676.42 0C698.74 0 721.68 0 732.84 0H744L744 162Z" fill="url(#paint0_linear_1556_10938)"/>
<defs>
<linearGradient id="paint0_linear_1556_10938" x1="511" y1="243" x2="92.7335" y2="64.1013" gradientUnits="userSpaceOnUse">
<stop offset="0.214884" stop-color="#34184E"/>
<stop offset="0.535074" stop-color="#9E1056"/>
</linearGradient>
</defs>
</svg>
