<svg width="16" height="16" viewBox="0 0 16 16" fill="none" xmlns="http://www.w3.org/2000/svg">
<g clip-path="url(#clip0_1400_21053)">
<path d="M10.0672 12.9139L10.7339 14.0739C10.0939 14.3672 9.39385 14.5605 8.66719 14.6339V13.2872C9.16052 13.2272 9.62719 13.1005 10.0672 12.9139ZM2.71385 8.66719H1.36719C1.44052 9.40052 1.63385 10.0939 1.92719 10.7339L3.08719 10.0672C2.90052 9.62719 2.77385 9.16052 2.71385 8.66719ZM10.0672 3.08719L10.7339 1.92719C10.0939 1.63385 9.40052 1.44052 8.66719 1.36719V2.71385C9.16052 2.77385 9.62719 2.90052 10.0672 3.08719ZM13.2872 7.33385H14.6339C14.5605 6.60052 14.3672 5.90719 14.0739 5.26719L12.9139 5.93385C13.1005 6.37385 13.2272 6.84052 13.2872 7.33385ZM5.93385 12.9139L5.26719 14.0739C5.90719 14.3672 6.60719 14.5605 7.33385 14.6339V13.2872C6.84052 13.2272 6.37385 13.1005 5.93385 12.9139ZM7.33385 2.71385V1.36719C6.60052 1.44052 5.90719 1.63385 5.26719 1.92719L5.93385 3.08719C6.37385 2.90052 6.84052 2.77385 7.33385 2.71385ZM12.2405 4.78052L13.4005 4.10719C12.9805 3.52719 12.4672 3.01385 11.8872 2.59385L11.2139 3.75385C11.6072 4.05385 11.9472 4.39385 12.2405 4.78052ZM3.08719 5.93385L1.92719 5.26719C1.63385 5.90719 1.44052 6.60052 1.36719 7.33385H2.71385C2.77385 6.84052 2.90052 6.37385 3.08719 5.93385ZM13.2872 8.66719C13.2272 9.16052 13.1005 9.62719 12.9139 10.0672L14.0739 10.7339C14.3672 10.0939 14.5605 9.39385 14.6339 8.66719H13.2872V8.66719ZM11.2205 12.2405L11.8939 13.4005C12.4739 12.9805 12.9872 12.4672 13.4072 11.8872L12.2472 11.2139C11.9472 11.6072 11.6072 11.9472 11.2205 12.2405ZM4.78052 3.76052L4.11385 2.59385C3.52719 3.02052 3.02052 3.52719 2.60052 4.11385L3.76052 4.78719C4.05385 4.39385 4.39385 4.05385 4.78052 3.76052ZM3.76052 11.2205L2.60052 11.8872C3.02052 12.4672 3.53385 12.9805 4.11385 13.4005L4.78719 12.2405C4.39385 11.9472 4.05385 11.6072 3.76052 11.2205ZM8.00052 4.66719C7.63385 4.66719 7.33385 4.96719 7.33385 5.33385V7.72719C7.33385 8.08052 7.47385 8.42052 7.72719 8.66719L9.72719 10.6672C9.98719 10.9272 10.4072 10.9272 10.6672 10.6672C10.9272 10.4072 10.9272 9.98719 10.6672 9.72719L8.66719 7.72719V5.33385C8.66719 4.96719 8.36719 4.66719 8.00052 4.66719Z" fill="#EE0075"/>
</g>
<defs>
<clipPath id="clip0_1400_21053">
<rect width="16" height="16" fill="white"/>
</clipPath>
</defs>
</svg>
