<svg width="20" height="20" fill="none" xmlns="http://www.w3.org/2000/svg"><path d="M10.333 14.5c.236 0 .434-.08.594-.24.16-.16.24-.357.24-.593v-3.334a.806.806 0 0 0-.24-.593.806.806 0 0 0-.594-.24.806.806 0 0 0-.593.24.806.806 0 0 0-.24.593v3.334c0 .236.08.434.24.593.16.16.357.24.593.24Zm0-6.667c.236 0 .434-.08.594-.24.16-.159.24-.357.24-.593a.806.806 0 0 0-.24-.594.806.806 0 0 0-.594-.24.806.806 0 0 0-.593.24A.806.806 0 0 0 9.5 7c0 .236.08.434.24.594.16.16.357.24.593.24Zm0 10.834a8.115 8.115 0 0 1-3.25-.657 8.415 8.415 0 0 1-2.646-1.78 8.416 8.416 0 0 1-1.78-2.647A8.115 8.115 0 0 1 2 10.333c0-1.152.219-2.236.656-3.25a8.415 8.415 0 0 1 1.781-2.646 8.415 8.415 0 0 1 2.646-1.78A8.115 8.115 0 0 1 10.333 2c1.153 0 2.236.219 3.25.656a8.416 8.416 0 0 1 2.646 1.781 8.415 8.415 0 0 1 1.781 2.646 8.115 8.115 0 0 1 .657 3.25 8.115 8.115 0 0 1-.657 3.25 8.416 8.416 0 0 1-1.78 2.646 8.416 8.416 0 0 1-2.647 1.781 8.115 8.115 0 0 1-3.25.657Z" fill="#312971"/></svg>