<svg width="20" height="20" viewBox="0 0 20 20" fill="none" xmlns="http://www.w3.org/2000/svg">
<path d="M10 1.875C5.51992 1.875 1.875 5.51992 1.875 10C1.875 14.4801 5.51992 18.125 10 18.125C14.4801 18.125 18.125 14.4801 18.125 10C18.125 5.51992 14.4801 1.875 10 1.875ZM8.125 6.875C8.12644 6.37816 8.32445 5.90209 8.67577 5.55077C9.02709 5.19945 9.50316 5.00144 10 5C10.4968 5.00144 10.9729 5.19945 11.3242 5.55077C11.6756 5.90209 11.8736 6.37816 11.875 6.875V9.375C11.8736 9.87184 11.6756 10.3479 11.3242 10.6992C10.9729 11.0506 10.4968 11.2486 10 11.25C9.50316 11.2486 9.02709 11.0506 8.67577 10.6992C8.32445 10.3479 8.12644 9.87184 8.125 9.375V6.875ZM13.75 9.69609C13.75 10.6086 13.3227 11.4777 12.5473 12.1438C11.9994 12.614 11.3357 12.9294 10.625 13.057V13.75H11.25C11.4158 13.75 11.5747 13.8158 11.6919 13.9331C11.8092 14.0503 11.875 14.2092 11.875 14.375C11.875 14.5408 11.8092 14.6997 11.6919 14.8169C11.5747 14.9342 11.4158 15 11.25 15H8.75C8.58424 15 8.42527 14.9342 8.30806 14.8169C8.19085 14.6997 8.125 14.5408 8.125 14.375C8.125 14.2092 8.19085 14.0503 8.30806 13.9331C8.42527 13.8158 8.58424 13.75 8.75 13.75H9.375V13.057C8.6643 12.9294 8.00065 12.614 7.45273 12.1438C6.67734 11.4777 6.25 10.6086 6.25 9.69609V8.76172C6.25 8.59596 6.31585 8.43699 6.43306 8.31978C6.55027 8.20257 6.70924 8.13672 6.875 8.13672C7.04076 8.13672 7.19973 8.20257 7.31694 8.31978C7.43415 8.43699 7.5 8.59596 7.5 8.76172V9.69609C7.5 10.6984 8.59375 11.8633 10 11.8633C11.1563 11.8633 12.5 10.9168 12.5 9.69609V8.76172C12.5 8.59596 12.5658 8.43699 12.6831 8.31978C12.8003 8.20257 12.9592 8.13672 13.125 8.13672C13.2908 8.13672 13.4497 8.20257 13.5669 8.31978C13.6842 8.43699 13.75 8.59596 13.75 8.76172V9.69609Z" fill="#EE0075"/>
</svg>
