<svg width="20" height="20" viewBox="0 0 20 20" fill="none" xmlns="http://www.w3.org/2000/svg">
<path d="M5.19521 17.1876C4.95538 17.1871 4.71979 17.1243 4.51162 17.0051C4.04287 16.7395 3.75146 16.2239 3.75146 15.6641V4.33601C3.75146 3.77468 4.04287 3.26062 4.51162 2.99499C4.72475 2.8725 4.96686 2.80952 5.21266 2.81261C5.45846 2.8157 5.69891 2.88476 5.90889 3.01257L15.5905 8.80788C15.7923 8.9344 15.9586 9.11009 16.0739 9.31848C16.1892 9.52687 16.2497 9.76113 16.2497 9.99929C16.2497 10.2374 16.1892 10.4717 16.0739 10.6801C15.9586 10.8885 15.7923 11.0642 15.5905 11.1907L5.90732 16.9876C5.69244 17.1175 5.44631 17.1866 5.19521 17.1876Z" fill="#665DFB"/>
</svg>
