<svg width="57" height="61" fill="none" xmlns="http://www.w3.org/2000/svg"><path d="M12.571 15.195c-3.456 4.116-5.391 9.432-5.445 14.956-.131 12.623 9.536 23.003 21.375 23.027 11.823.024 21.375-10.188 21.375-22.79 0-12.408-9.301-22.505-20.874-22.79a.459.459 0 0 0-.353.147.52.52 0 0 0-.148.373v9.926" stroke="#EE0075" stroke-width="3.486" stroke-linecap="round" stroke-linejoin="round"/><path d="m25.983 33.075-8.795-13.413a1.014 1.014 0 0 1 .103-1.235.863.863 0 0 1 1.158-.109l12.58 9.377a3.898 3.898 0 0 1 1.452 2.485 4.06 4.06 0 0 1-.602 2.856c-.545.831-1.375 1.4-2.31 1.583a3.439 3.439 0 0 1-2.687-.602 3.822 3.822 0 0 1-.899-.943Z" fill="#EE0075"/></svg>