<svg width="14" height="14" viewBox="0 0 14 14" fill="none" xmlns="http://www.w3.org/2000/svg">
<path d="M6.9987 0.332031C3.33203 0.332031 0.332031 3.33203 0.332031 6.9987C0.332031 10.6654 3.33203 13.6654 6.9987 13.6654C10.6654 13.6654 13.6654 10.6654 13.6654 6.9987C13.6654 3.33203 10.6654 0.332031 6.9987 0.332031ZM9.36536 9.53203L6.64536 7.8587C6.44536 7.7387 6.32536 7.52536 6.32536 7.29203V4.16536C6.33203 3.89203 6.5587 3.66536 6.83203 3.66536C7.10536 3.66536 7.33203 3.89203 7.33203 4.16536V7.13203L9.89203 8.67203C10.132 8.8187 10.212 9.13203 10.0654 9.37203C9.9187 9.60536 9.60536 9.6787 9.36536 9.53203Z" fill="#EE0075"/>
</svg>
