<svg width="84" height="48" fill="none" xmlns="http://www.w3.org/2000/svg"><g clip-path="url(#a)"><path d="m18.328 46.01 4.791-21.35 3.39 5.758-6.027-10.237-4.566 5.678-3.87-9.978 5.693-7.079 2.328 7.31 3.46-4.302 1.795 11.201 22.4-13.554-46.353-7.18L18.33 46.01Z" fill="url(#b)"/><path d="m23.119 24.66-2.637-4.48-4.566 5.68-3.87-9.978 5.693-7.08 2.328 7.31 3.46-4.302 1.795 11.201-2.203 1.65Z" fill="url(#c)"/><path d="m25.315 23.01 22.4-13.554-25.197-3.902 2.797 17.457Z" fill="url(#d)"/><mask id="e" style="mask-type:luminance" maskUnits="userSpaceOnUse" x="1" y="2" width="18" height="45"><path d="m18.328 46.01-2.412-20.15-3.87-9.978L1.37 2.277 18.33 46.01Z" fill="#fff"/></mask><g mask="url(#e)"><mask id="g" style="mask-type:luminance" maskUnits="userSpaceOnUse" x="-22312" y="-22228" width="44699" height="44699"><path d="M-22311.3 2548.07-2388.56-22227.2 22386.7-2304.4 2463.91 22470.8-22311.3 2548.07Z" fill="url(#f)"/></mask><g mask="url(#g)"><path d="m18.332 46.012-2.412-20.15-3.87-9.979L1.373 2.28l16.959 43.733Z" fill="url(#h)"/></g></g><path d="M30.77 22.597c.148 0 .27.113.283.26l.181 2.179c.004.05-.066.063-.08.015a.041.041 0 0 1 0-.029 4.352 4.352 0 0 1 1.12-1.51 5.662 5.662 0 0 1 1.502-.962c.342-.151.649-.253.92-.307.224-.045.407.146.396.375l-.077 1.568a.43.43 0 0 1-.425.398 3.254 3.254 0 0 0-1.565.429 3.584 3.584 0 0 0-1.29 1.314 3.489 3.489 0 0 0-.47 1.759v3.94a.4.4 0 0 1-.4.4h-1.592a.4.4 0 0 1-.4-.4v-9.03c0-.22.18-.4.4-.4h1.498Z" fill="url(#i)"/><path d="M37.853 22.997c0-.221.179-.4.4-.4h1.616c.22 0 .4.179.4.4v9.029a.4.4 0 0 1-.4.4h-1.616a.4.4 0 0 1-.4-.4v-9.03Zm-.14-3.919c0-.375.148-.688.445-.938.297-.25.617-.375.962-.375.36 0 .68.125.961.375.282.25.422.563.422.938 0 .376-.14.688-.422.939a1.46 1.46 0 0 1-.962.352c-.343 0-.664-.118-.961-.352a1.177 1.177 0 0 1-.446-.939Z" fill="url(#j)"/><path d="M48.051 32.66c-.922 0-1.76-.188-2.51-.563a4.328 4.328 0 0 1-1.782-1.736c-.438-.766-.657-1.712-.657-2.838 0-1.11.227-2.064.68-2.862.47-.797 1.08-1.407 1.83-1.83a4.927 4.927 0 0 1 2.486-.656c.938 0 1.705.203 2.299.61.6.384 1.072.837 1.415 1.358.01.016.011.036.004.053-.026.06-.115.035-.107-.029l.162-1.345a.255.255 0 0 1 .254-.225h1.602c.22 0 .4.179.4.4v9.029a.4.4 0 0 1-.4.4H52.11a.4.4 0 0 1-.4-.4v-1.48c0-.133.181-.171.234-.05a.114.114 0 0 1-.004.104c-.07.12-.194.284-.371.488a5.706 5.706 0 0 1-.821.704c-.329.25-.72.462-1.173.634-.438.156-.946.234-1.525.234Zm.657-1.97c.516 0 .977-.094 1.384-.282a2.87 2.87 0 0 0 1.608-1.972c.007-.03.01-.06.01-.091v-1.939a.374.374 0 0 0-.015-.11 2.66 2.66 0 0 0-.618-1.072 3.173 3.173 0 0 0-1.079-.774 3.208 3.208 0 0 0-1.36-.281c-.563 0-1.08.14-1.548.422-.47.266-.845.641-1.127 1.126-.28.485-.422 1.048-.422 1.689 0 .61.141 1.165.423 1.665.297.5.688.9 1.172 1.196a3.077 3.077 0 0 0 1.572.423Z" fill="url(#k)"/><path d="M61.84 32.66c-.923 0-1.752-.211-2.487-.633-.735-.438-1.314-1.056-1.736-1.853-.422-.798-.633-1.728-.633-2.792 0-1.094.227-2.025.68-2.791a4.557 4.557 0 0 1 1.83-1.783c.782-.422 1.657-.633 2.627-.633a5 5 0 0 1 2.134.469c.64.276 1.143.66 1.512 1.15.056.074.08.167.071.259l-.058.679V14.599c0-.22.18-.4.4-.4h1.593c.22 0 .4.18.4.4v17.427a.4.4 0 0 1-.4.4h-1.636a.38.38 0 0 1-.38-.38v-1.333c0-.131.18-.166.23-.045a.118.118 0 0 1-.022.124 6.358 6.358 0 0 1-1.733 1.329c-.704.36-1.501.54-2.393.54Zm.75-2.04c.547 0 1.032-.095 1.454-.282a3.036 3.036 0 0 0 1.08-.798c.286-.346.492-.744.619-1.192a.38.38 0 0 0 .014-.103v-1.87a.373.373 0 0 0-.013-.096 2.527 2.527 0 0 0-.62-1.102 2.989 2.989 0 0 0-1.103-.797 3.593 3.593 0 0 0-1.431-.282c-.579 0-1.11.141-1.595.422a3.17 3.17 0 0 0-1.15 1.126c-.281.485-.422 1.048-.422 1.69 0 .61.141 1.164.422 1.665.298.5.689.899 1.173 1.196a3.077 3.077 0 0 0 1.572.422Z" fill="url(#l)"/><path d="M75.976 32.66c-.923 0-1.76-.188-2.51-.563a4.328 4.328 0 0 1-1.783-1.736c-.438-.766-.657-1.712-.657-2.838 0-1.11.227-2.064.68-2.862.47-.797 1.08-1.407 1.83-1.83a4.927 4.927 0 0 1 2.486-.656c.939 0 1.705.203 2.3.61.6.384 1.071.837 1.414 1.358.01.016.012.036.004.053-.026.06-.114.035-.107-.029l.163-1.345a.255.255 0 0 1 .253-.225h1.602c.22 0 .4.179.4.4v9.029a.4.4 0 0 1-.4.4h-1.616a.4.4 0 0 1-.4-.4v-1.48c0-.133.181-.171.235-.05a.114.114 0 0 1-.005.104c-.07.12-.194.284-.37.488a5.713 5.713 0 0 1-.822.704c-.328.25-.72.462-1.173.634-.438.156-.946.234-1.524.234Zm.656-1.97c.516 0 .978-.094 1.384-.282a2.87 2.87 0 0 0 1.608-1.972c.008-.03.01-.06.01-.091v-1.939a.374.374 0 0 0-.015-.11 2.66 2.66 0 0 0-.617-1.072 3.174 3.174 0 0 0-1.08-.774 3.208 3.208 0 0 0-1.36-.281c-.563 0-1.08.14-1.548.422-.47.266-.845.641-1.126 1.126-.282.485-.422 1.048-.422 1.689 0 .61.14 1.165.422 1.665.297.5.688.9 1.173 1.196a3.077 3.077 0 0 0 1.571.423Z" fill="url(#m)"/><path d="M31.871 11.192v.255l-.244.073-20.217 6.095-.197-.657 19.972-6.02v-.598h.686v.852Zm3.93-2.947c-.064-.48-.4-.905-.9-1.17a2.327 2.327 0 0 0-1.737-.166L8.318 14.4c-.798.24-1.292.88-1.292 1.512v3.634c0 .9.849 1.56 1.721 1.337l2.473-.63 20.202-6.09 3.546-1.252c.507-.179.845-.658.845-1.194V8.417c0-.053-.004-.11-.012-.172Z" fill="#081540" stroke="#081540" stroke-width=".686"/><path d="m24.714 14.476-5.63 2.652v26.225c0 1.657 1.275 2.972 2.815 2.972s2.815-1.315 2.815-2.972V14.476Z" fill="#081540" stroke="#081540" stroke-width=".686"/></g><defs><linearGradient id="b" x1="33.025" y1="27.733" x2="1.369" y2="2.277" gradientUnits="userSpaceOnUse"><stop stop-color="#FC00E3"/><stop offset=".628" stop-color="#01FFFE"/></linearGradient><linearGradient id="c" x1="33.025" y1="27.733" x2="1.369" y2="2.277" gradientUnits="userSpaceOnUse"><stop stop-color="#FC00E3"/><stop offset=".628" stop-color="#01FFFE"/></linearGradient><linearGradient id="d" x1="40.007" y1="19.042" x2="22.799" y2="5.204" gradientUnits="userSpaceOnUse"><stop stop-color="#FC00E3"/><stop offset=".628" stop-color="#01FFFE"/></linearGradient><linearGradient id="f" x1="26.931" y1="43.834" x2="-2.908" y2="9.393" gradientUnits="userSpaceOnUse"><stop stop-color="#fff"/><stop offset=".001" stop-color="#fff"/><stop offset="1" stop-color="#fff" stop-opacity="0"/></linearGradient><linearGradient id="h" x1="25.681" y1="36.873" x2="-5.975" y2="11.417" gradientUnits="userSpaceOnUse"><stop stop-color="#FC00E3"/><stop offset=".628" stop-color="#01FFFE"/></linearGradient><linearGradient id="i" x1="64.67" y1="40.667" x2="48.67" y2="8.667" gradientUnits="userSpaceOnUse"><stop offset=".428" stop-color="#1EE3F8"/><stop offset="1" stop-color="#FF4FD3"/></linearGradient><linearGradient id="j" x1="64.67" y1="40.667" x2="48.67" y2="8.667" gradientUnits="userSpaceOnUse"><stop offset=".428" stop-color="#1EE3F8"/><stop offset="1" stop-color="#FF4FD3"/></linearGradient><linearGradient id="k" x1="64.67" y1="40.667" x2="48.67" y2="8.667" gradientUnits="userSpaceOnUse"><stop offset=".428" stop-color="#1EE3F8"/><stop offset="1" stop-color="#FF4FD3"/></linearGradient><linearGradient id="l" x1="64.67" y1="40.667" x2="48.67" y2="8.667" gradientUnits="userSpaceOnUse"><stop offset=".428" stop-color="#1EE3F8"/><stop offset="1" stop-color="#FF4FD3"/></linearGradient><linearGradient id="m" x1="64.67" y1="40.667" x2="48.67" y2="8.667" gradientUnits="userSpaceOnUse"><stop offset=".428" stop-color="#1EE3F8"/><stop offset="1" stop-color="#FF4FD3"/></linearGradient><clipPath id="a"><path fill="#fff" d="M0 0h84v48H0z"/></clipPath></defs></svg>