<svg width="20" height="20" viewBox="0 0 20 20" fill="none" xmlns="http://www.w3.org/2000/svg">
<path d="M2.27098 17.5C2.11821 17.5 1.97932 17.4618 1.85432 17.3854C1.72932 17.309 1.63209 17.2083 1.56265 17.0833C1.49321 16.9583 1.45501 16.8229 1.44807 16.6771C1.44112 16.5313 1.47932 16.3889 1.56265 16.25L9.27098 2.91667C9.35432 2.77778 9.46196 2.67361 9.5939 2.60417C9.72584 2.53472 9.86126 2.5 10.0001 2.5C10.139 2.5 10.2745 2.53472 10.4064 2.60417C10.5383 2.67361 10.646 2.77778 10.7293 2.91667L18.4376 16.25C18.521 16.3889 18.5592 16.5313 18.5522 16.6771C18.5453 16.8229 18.5071 16.9583 18.4376 17.0833C18.3682 17.2083 18.271 17.309 18.146 17.3854C18.021 17.4618 17.8821 17.5 17.7293 17.5H2.27098ZM10.0001 15C10.2363 15 10.4342 14.9201 10.5939 14.7604C10.7536 14.6007 10.8335 14.4028 10.8335 14.1667C10.8335 13.9306 10.7536 13.7326 10.5939 13.5729C10.4342 13.4132 10.2363 13.3333 10.0001 13.3333C9.76404 13.3333 9.56612 13.4132 9.4064 13.5729C9.24668 13.7326 9.16682 13.9306 9.16682 14.1667C9.16682 14.4028 9.24668 14.6007 9.4064 14.7604C9.56612 14.9201 9.76404 15 10.0001 15ZM10.0001 12.5C10.2363 12.5 10.4342 12.4201 10.5939 12.2604C10.7536 12.1007 10.8335 11.9028 10.8335 11.6667V9.16667C10.8335 8.93056 10.7536 8.73264 10.5939 8.57292C10.4342 8.41319 10.2363 8.33333 10.0001 8.33333C9.76404 8.33333 9.56612 8.41319 9.4064 8.57292C9.24668 8.73264 9.16682 8.93056 9.16682 9.16667V11.6667C9.16682 11.9028 9.24668 12.1007 9.4064 12.2604C9.56612 12.4201 9.76404 12.5 10.0001 12.5Z" fill="#93751C"/>
</svg>
